<?xml version="1.0" encoding="UTF-8" standalone="no"?>
<!DOCTYPE svg PUBLIC "-//W3C//DTD SVG 1.1//EN" "http://www.w3.org/Graphics/SVG/1.1/DTD/svg11.dtd">
<svg width="100%" height="100%" viewBox="0 0 359 370" version="1.1" xmlns="http://www.w3.org/2000/svg" xmlns:xlink="http://www.w3.org/1999/xlink" xml:space="preserve" xmlns:serif="http://www.serif.com/" style="fill-rule:evenodd;clip-rule:evenodd;stroke-linejoin:round;stroke-miterlimit:2;">
    <g transform="matrix(1,0,0,1,-100,-100.59)">
        <path d="M157.203,247.243L137.284,235.743L187.284,149.141C189.338,145.583 193.135,143.391 197.243,143.391L297.243,143.391L297.243,166.391L203.883,166.391L157.203,247.243Z" style="fill:rgb(0,113,188);fill-rule:nonzero;"/>
    </g>
    <g transform="matrix(1,0,0,1,-100,-100.59)">
        <path d="M119.919,225.718L100,214.218L162.283,106.34C164.338,102.781 168.134,100.59 172.243,100.59L297.243,100.59L297.243,123.59L178.882,123.59L119.919,225.718ZM457.202,322.846L382.202,192.941C380.147,189.384 376.352,187.191 372.243,187.191L222.243,187.191C218.135,187.191 214.338,189.384 212.284,192.941L137.284,322.846C135.23,326.404 135.23,330.787 137.284,334.346L212.284,464.25C214.338,467.808 218.135,470 222.243,470L372.243,470C376.352,470 380.147,467.808 382.202,464.25L395.313,441.543C395.313,441.543 395.812,440.68 394.944,440.179C391.317,438.086 377.515,430.117 376.761,429.682C375.892,429.18 375.393,430.045 375.393,430.045L365.604,447L228.883,447L160.522,328.596L228.883,210.191L365.604,210.191L433.964,328.596L396.726,393.096L273.147,393.096L346.327,266.346C348.381,262.787 348.381,258.404 346.327,254.846C344.272,251.287 340.476,249.096 336.367,249.096L234.743,249.096C234.191,249.096 233.744,249.543 233.743,250.096L233.743,271.096C233.743,271.648 234.191,272.096 234.743,272.096L316.448,272.096L243.27,398.846C241.216,402.404 241.216,406.788 243.27,410.346C245.325,413.903 249.121,416.096 253.23,416.096L403.364,416.096C407.474,416.096 411.27,413.903 413.324,410.346L457.202,334.346C459.257,330.787 459.257,326.404 457.202,322.846Z" style="fill:rgb(0,113,188);fill-rule:nonzero;"/>
    </g>
</svg>
