<?xml version="1.0" encoding="UTF-8" standalone="no"?>
<!DOCTYPE svg PUBLIC "-//W3C//DTD SVG 1.1//EN" "http://www.w3.org/Graphics/SVG/1.1/DTD/svg11.dtd">
<!-- Created with Vectornator (http://vectornator.io/) -->
<svg height="100%" stroke-miterlimit="10" style="fill-rule:nonzero;clip-rule:evenodd;stroke-linecap:round;stroke-linejoin:round;" version="1.1" viewBox="0 0 40 60" width="100%" xml:space="preserve" xmlns="http://www.w3.org/2000/svg" xmlns:vectornator="http://vectornator.io" xmlns:xlink="http://www.w3.org/1999/xlink">
<defs/>
<g id="Layer-1" vectornator:layerName="Layer 1">
<path d="M14.0554 49.0466C13.628 49.0466 13.2327 48.8205 13.019 48.4533L5.21505 35.0581C5.00134 34.691 5.00134 34.2392 5.21505 33.872L13.019 20.4764C13.2327 20.1097 13.628 19.8835 14.0554 19.8835L29.6634 19.8835C30.0908 19.8835 30.486 20.1097 30.6997 20.4764L38.5037 33.872C38.7179 34.2392 38.7179 34.691 38.5037 35.0581L33.9379 42.8951C33.7242 43.2618 33.329 43.4879 32.9016 43.4879L17.2796 43.4879C16.8522 43.4879 16.457 43.2618 16.2433 42.8951C16.0296 42.528 16.0296 42.0762 16.2433 41.709L23.8578 28.6389L15.3563 28.6389C15.2984 28.6389 15.2522 28.5926 15.2522 28.5358L15.2522 26.3703C15.2522 26.3134 15.2984 26.2672 15.3563 26.2672L25.9305 26.2672C26.3579 26.2672 26.7531 26.4933 26.9668 26.86C27.1806 27.2271 27.1806 27.6789 26.9668 28.0461L19.3523 41.1162L32.211 41.1162L36.0857 34.4648L28.9728 22.2553L14.7464 22.2553L7.63347 34.4648L14.7464 46.6749L28.9728 46.6749L29.9914 44.9265C29.9914 44.9265 30.0432 44.8372 30.1337 44.889C30.2121 44.9339 31.6483 45.7556 32.0258 45.9716C32.1158 46.0229 32.0641 46.1121 32.0641 46.1121L30.6997 48.4533C30.486 48.8205 30.0908 49.0466 29.6634 49.0466L14.0554 49.0466ZM7.28771 26.0762L5.21505 24.8901L10.4177 15.96C10.6314 15.5933 11.0266 15.3671 11.454 15.3671L21.8594 15.3671L21.8594 17.7389L12.1451 17.7389L7.28771 26.0762ZM3.40835 23.8566L1.33568 22.6705L7.81638 11.5462C8.03008 11.1795 8.4253 10.9534 8.85271 10.9534L21.8594 10.9534L21.8594 13.3251L9.54376 13.3251L3.40835 23.8566Z" fill="#ffffff" fill-rule="nonzero" opacity="0" stroke="none" vectornator:layerName="Controller"/>
<path d="M8.79274 11.9674C8.07529 11.9674 7.5873 12.4554 7.5873 13.1728L7.5873 16.1701L9.99817 16.1701L9.99817 13.1728C9.99817 12.4554 9.51018 11.9674 8.79274 11.9674ZM14.3964 11.9674C13.6973 11.9674 13.1909 12.4554 13.1909 13.1728L13.1909 16.1701L15.6018 16.1701L15.6018 13.1728C15.6018 12.4554 15.1138 11.9674 14.3964 11.9674ZM20 11.9674C19.2826 11.9674 18.7946 12.4554 18.7946 13.1728L18.7946 16.1701L21.2054 16.1701L21.2054 13.1728C21.2054 12.4554 20.7174 11.9674 20 11.9674ZM25.6036 11.9674C24.9046 11.9674 24.3982 12.4554 24.3982 13.1728L24.3982 16.1701L26.8091 16.1701L26.8091 13.1728C26.8091 12.4554 26.3211 11.9674 25.6036 11.9674ZM31.2073 11.9674C30.4898 11.9674 30.0018 12.4554 30.0018 13.1728L30.0018 16.1701L32.4127 16.1701L32.4127 13.1728C32.4127 12.4554 31.9247 11.9674 31.2073 11.9674ZM6.8054 18.3529C3.31015 18.3529 1.52756 20.0746 1.52756 23.533L1.52756 36.467C1.52756 39.9254 3.31015 41.6797 6.8054 41.6797L33.1946 41.6797C36.6899 41.6797 38.4724 39.907 38.4724 36.467L38.4724 23.533C38.4724 20.0929 36.6899 18.3529 33.1946 18.3529L6.8054 18.3529ZM20 21.1222C25.1088 21.1222 30.0333 23.4514 32.6408 26.6606C32.7941 26.8494 32.7851 27.0909 32.6082 27.2796L31.1421 28.7783C30.9533 29.0024 30.6585 28.9907 30.4579 28.7783C27.7561 25.8758 24.0823 24.3475 20 24.3475C15.9413 24.3475 12.3001 25.8758 9.57464 28.7783C9.36226 28.9906 9.05847 28.9907 8.85789 28.7783L7.39183 27.2796C7.21485 27.0909 7.20587 26.8494 7.35925 26.6606C9.95493 23.4396 14.8912 21.1222 20 21.1222ZM20 27.638C23.4216 27.638 26.5346 29.1362 28.21 31.1891C28.3634 31.3779 28.3544 31.5986 28.1774 31.7756L26.5159 33.4371C26.3035 33.6495 26.0323 33.6613 25.8317 33.4371C24.4513 31.9505 22.2417 30.8516 20 30.8634C17.7819 30.8516 15.5785 31.9179 14.2335 33.4045C14.0093 33.6405 13.7409 33.6495 13.5167 33.4371L11.8226 31.7756C11.6456 31.5868 11.6366 31.3779 11.79 31.1891C13.4654 29.148 16.5784 27.638 20 27.638ZM20 34.1213C21.5338 34.1213 22.8876 34.9277 23.5837 35.848C23.7371 36.0368 23.7163 36.2692 23.5511 36.4344L20.8471 39.0082C20.4223 39.4211 20.236 39.5294 20 39.5294C19.7758 39.5294 19.5777 39.4093 19.1529 39.0082L16.4489 36.4344C16.2837 36.2692 16.2657 36.0575 16.3837 35.8806C17.0798 34.9485 18.4426 34.1213 20 34.1213ZM7.5873 43.8299L7.5873 46.8272C7.5873 47.5262 8.07529 48.0326 8.79274 48.0326C9.51018 48.0326 9.99817 47.5262 9.99817 46.8272L9.99817 43.8299L7.5873 43.8299ZM13.1909 43.8299L13.1909 46.8272C13.1909 47.5262 13.6973 48.0326 14.3964 48.0326C15.1138 48.0326 15.6018 47.5262 15.6018 46.8272L15.6018 43.8299L13.1909 43.8299ZM18.7946 43.8299L18.7946 46.8272C18.7946 47.5262 19.2826 48.0326 20 48.0326C20.7174 48.0326 21.2054 47.5262 21.2054 46.8272L21.2054 43.8299L18.7946 43.8299ZM24.3982 43.8299L24.3982 46.8272C24.3982 47.5262 24.9046 48.0326 25.6036 48.0326C26.3211 48.0326 26.8091 47.5262 26.8091 46.8272L26.8091 43.8299L24.3982 43.8299ZM30.0018 43.8299L30.0018 46.8272C30.0018 47.5262 30.4898 48.0326 31.2073 48.0326C31.9247 48.0326 32.4127 47.5262 32.4127 46.8272L32.4127 43.8299L30.0018 43.8299Z" fill="#ffffff" fill-rule="nonzero" opacity="0" stroke="none" vectornator:layerName="Device"/>
<path d="M35.5599 11.3281L29.3359 11.3281L27.002 38.7135L26.3796 28.444L23.112 28.444L23.112 20.6641L12.2201 28.444L12.2201 20.6641L1.32812 28.444L1.32812 47.1159L1.32812 48.6719L26.224 48.6719L27.7799 48.6719L38.6719 48.6719L35.5599 11.3281ZM9.10807 44.0039L5.99609 44.0039L5.99609 39.3359L9.10807 39.3359L9.10807 44.0039ZM9.10807 36.224L5.99609 36.224L5.99609 31.556L9.10807 31.556L9.10807 36.224ZM15.332 44.0039L12.2201 44.0039L12.2201 39.3359L15.332 39.3359L15.332 44.0039ZM15.332 36.224L12.2201 36.224L12.2201 31.556L15.332 31.556L15.332 36.224ZM21.556 44.0039L18.444 44.0039L18.444 39.3359L21.556 39.3359L21.556 44.0039ZM21.556 36.224L18.444 36.224L18.444 31.556L21.556 31.556L21.556 36.224Z" fill="#ffffff" fill-rule="nonzero" opacity="0" stroke="none" vectornator:layerName="Factory"/>
<path d="M3.17195 13.9148L15.4135 29.2248L24.5865 29.2248L36.8281 13.9148L3.17195 13.9148ZM15.4135 32.2933L15.4135 46.0852L24.5865 43.0167L24.5865 32.2933L15.4135 32.2933Z" fill="#ffffff" fill-rule="nonzero" opacity="1" stroke="#ffffff" stroke-linecap="round" stroke-linejoin="miter" stroke-width="2" vectornator:layerName="Filter"/>
</g>
</svg>
