<?xml version="1.0" encoding="UTF-8"?>
<svg width="80px" height="120px" viewBox="0 0 80 120" xmlns="http://www.w3.org/2000/svg" xmlns:xlink="http://www.w3.org/1999/xlink" version="1.1">
 <!-- Generated by Pixelmator Pro 2.0.8 -->
 <path id="Path" d="M27.26 96.838 C26.344 96.838 25.497 96.349 25.039 95.555 L8.314 66.587 C7.856 65.793 7.856 64.816 8.314 64.022 L25.039 35.053 C25.497 34.26 26.344 33.771 27.26 33.771 L60.71 33.771 C61.626 33.771 62.473 34.26 62.931 35.053 L79.656 64.022 C80.115 64.816 80.115 65.793 79.656 66.587 L69.871 83.535 C69.413 84.328 68.566 84.817 67.65 84.817 L34.17 84.817 C33.254 84.817 32.407 84.328 31.949 83.535 31.491 82.741 31.491 81.764 31.949 80.97 L48.268 52.705 30.048 52.705 C29.924 52.705 29.825 52.605 29.825 52.482 L29.825 47.799 C29.825 47.676 29.924 47.576 30.048 47.576 L52.71 47.576 C53.626 47.576 54.473 48.065 54.931 48.858 55.389 49.652 55.389 50.629 54.931 51.423 L38.612 79.688 66.17 79.688 74.474 65.304 59.23 38.9 28.741 38.9 13.497 65.304 28.741 91.709 59.23 91.709 61.413 87.928 C61.413 87.928 61.524 87.735 61.718 87.847 61.886 87.944 64.964 89.721 65.773 90.188 65.966 90.299 65.855 90.492 65.855 90.492 L62.931 95.555 C62.473 96.349 61.626 96.838 60.71 96.838 L27.26 96.838 Z M12.756 47.163 L8.314 44.598 19.464 25.286 C19.922 24.493 20.769 24.004 21.685 24.004 L43.985 24.004 43.985 29.133 23.166 29.133 12.756 47.163 Z M4.442 42.363 L-0 39.798 13.889 15.741 C14.347 14.948 15.194 14.459 16.11 14.459 L43.985 14.459 43.985 19.588 17.591 19.588 4.442 42.363 Z" fill="#ffffff" fill-opacity="1" stroke="none"/>
</svg>
