<?xml version="1.0" encoding="UTF-8"?>
<svg width="500px" height="500px" viewBox="0 0 500 500" xmlns="http://www.w3.org/2000/svg" xmlns:xlink="http://www.w3.org/1999/xlink" version="1.1">
 <!-- Generated by Pixelmator Pro 2.1.2 -->
 <g id="ZWJS">
  <g id="Background">
   <path id="Path" d="M230.71 282.523 C229.678 282.523 228.723 281.972 228.207 281.078 L209.358 248.431 C208.842 247.537 208.842 246.435 209.358 245.541 L228.207 212.894 C228.723 212 229.678 211.449 230.71 211.449 L268.407 211.449 C269.439 211.449 270.394 212 270.91 212.894 L289.759 245.541 C290.275 246.435 290.275 247.537 289.759 248.431 L278.731 267.531 C278.215 268.425 277.261 268.976 276.228 268.976 L238.498 268.976 C237.465 268.976 236.511 268.425 235.994 267.531 235.478 266.637 235.478 265.535 235.994 264.641 L254.385 232.787 233.851 232.787 C233.712 232.787 233.6 232.674 233.6 232.535 L233.6 227.258 C233.6 227.119 233.712 227.007 233.851 227.007 L259.391 227.007 C260.423 227.007 261.378 227.557 261.894 228.452 262.41 229.346 262.41 230.447 261.894 231.342 L243.503 263.196 274.56 263.196 283.919 246.986 266.738 217.229 232.379 217.229 215.199 246.986 232.379 276.743 266.738 276.743 269.199 272.482 C269.199 272.482 269.324 272.264 269.543 272.39 269.732 272.5 273.201 274.503 274.113 275.029 274.33 275.155 274.205 275.371 274.205 275.371 L270.91 281.078 C270.394 281.972 269.439 282.523 268.407 282.523 Z" fill="#929292" fill-opacity="1" stroke="none"/>
   <g id="Right-signal">
    <path id="Path-copy-6" d="M305 323.914 L348.741 247.905 305 171.896 348.741 247.905 305 323.914 Z" fill="none" stroke="#929292" stroke-width="6.835" stroke-opacity="1" stroke-linejoin="round" stroke-linecap="round"/>
    <path id="Path-copy-5" d="M332.338 361.504 L397.95 247.49 332.338 133.477 397.95 247.49 332.338 361.504 Z" fill="none" stroke="#929292" stroke-width="6.835" stroke-opacity="1" stroke-linejoin="round" stroke-linecap="round"/>
    <path id="Path-copy-4" d="M358.993 399.093 L446.475 247.076 358.993 95.058 446.475 247.076 358.993 399.093 Z" fill="none" stroke="#929292" stroke-width="6.835" stroke-opacity="1" stroke-linejoin="round" stroke-linecap="round"/>
    <path id="Path-copy-3" d="M385.647 436.683 L495 246.661 385.647 56.639 495 246.661 385.647 436.683 Z" fill="none" stroke="#929292" stroke-width="6.835" stroke-opacity="1" stroke-linejoin="round" stroke-linecap="round"/>
   </g>
   <g id="Left-signal">
    <path id="Path-copy-6-1" d="M194.986 170.445 L151.248 246.448 194.986 322.452 151.248 246.448 194.986 170.445 Z" fill="none" stroke="#929292" stroke-width="6.834" stroke-opacity="1" stroke-linejoin="round" stroke-linecap="round"/>
    <path id="Path-copy-5-1" d="M167.65 132.858 L102.043 246.863 167.65 360.868 102.043 246.863 167.65 132.858 Z" fill="none" stroke="#929292" stroke-width="6.834" stroke-opacity="1" stroke-linejoin="round" stroke-linecap="round"/>
    <path id="Path-copy-4-1" d="M140.997 95.271 L53.522 247.277 140.997 399.284 53.522 247.277 140.997 95.271 Z" fill="none" stroke="#929292" stroke-width="6.834" stroke-opacity="1" stroke-linejoin="round" stroke-linecap="round"/>
    <path id="Path-copy-3-1" d="M114.344 57.683 L5 247.692 114.344 437.7 5 247.692 114.344 57.683 Z" fill="none" stroke="#929292" stroke-width="6.834" stroke-opacity="1" stroke-linejoin="round" stroke-linecap="round"/>
   </g>
  </g>
  <g id="Add-Ons">
   <g id="Check">
    <path id="Add" d="M402.342 372.791 C374.689 372.791 356.112 354.214 356.112 326.561 356.112 298.908 374.689 280.331 402.342 280.331 429.995 280.331 448.572 298.912 448.572 326.561 448.572 354.21 429.995 372.791 402.342 372.791 Z M402.342 284.182" fill="#ffffff" fill-opacity="1" stroke="#ffffff" stroke-width="6" stroke-opacity="1" stroke-linejoin="round" stroke-linecap="round"/>
    <path id="Add-copy" d="M402.342 372.791 C374.689 372.791 356.112 354.214 356.112 326.561 356.112 298.908 374.689 280.331 402.342 280.331 429.995 280.331 448.572 298.912 448.572 326.561 448.572 354.21 429.995 372.791 402.342 372.791 Z M402.342 368.94 C425.711 368.94 444.721 349.93 444.721 326.561 444.721 303.192 425.707 284.182 402.342 284.182 378.978 284.182 359.963 303.192 359.963 326.561 359.963 349.93 378.978 368.94 402.342 368.94 Z" fill="#000000" fill-opacity="1" stroke="none"/>
    <path id="Path-2" d="M426.506 317.376 L399.602 346.388 C397.609 348.537 394.377 348.537 392.383 346.388 L378.495 331.41 C376.502 329.261 376.502 325.775 378.495 323.625 380.488 321.476 383.72 321.476 385.712 323.625 L395.993 334.712 419.287 309.591 C421.281 307.441 424.513 307.443 426.505 309.591 428.498 311.74 428.498 315.225 426.506 317.376 Z" fill="#000000" fill-opacity="1" stroke="none"/>
   </g>
  </g>
 </g>
</svg>
