<?xml version="1.0" encoding="UTF-8"?>
<svg width="500px" height="500px" viewBox="0 0 500 500" xmlns="http://www.w3.org/2000/svg" xmlns:xlink="http://www.w3.org/1999/xlink" version="1.1">
 <!-- Generated by Pixelmator Pro 2.1.2 -->
 <g id="ZWJS">
  <g id="Background">
   <path id="Path" d="M230.71 282.523 C229.678 282.523 228.723 281.972 228.207 281.078 L209.358 248.431 C208.842 247.537 208.842 246.435 209.358 245.541 L228.207 212.894 C228.723 212 229.678 211.449 230.71 211.449 L268.407 211.449 C269.439 211.449 270.394 212 270.91 212.894 L289.759 245.541 C290.275 246.435 290.275 247.537 289.759 248.431 L278.731 267.531 C278.215 268.425 277.261 268.976 276.228 268.976 L238.498 268.976 C237.465 268.976 236.511 268.425 235.994 267.531 235.478 266.637 235.478 265.535 235.994 264.641 L254.385 232.787 233.851 232.787 C233.712 232.787 233.6 232.674 233.6 232.535 L233.6 227.258 C233.6 227.119 233.712 227.007 233.851 227.007 L259.391 227.007 C260.423 227.007 261.378 227.557 261.894 228.452 262.41 229.346 262.41 230.447 261.894 231.342 L243.503 263.196 274.56 263.196 283.919 246.986 266.738 217.229 232.379 217.229 215.199 246.986 232.379 276.743 266.738 276.743 269.199 272.482 C269.199 272.482 269.324 272.264 269.543 272.39 269.732 272.5 273.201 274.503 274.113 275.029 274.33 275.155 274.205 275.371 274.205 275.371 L270.91 281.078 C270.394 281.972 269.439 282.523 268.407 282.523 Z" fill="#929292" fill-opacity="1" stroke="none"/>
   <g id="Right-signal">
    <path id="Path-copy-6" d="M305 323.914 L348.741 247.905 305 171.896 348.741 247.905 305 323.914 Z" fill="none" stroke="#929292" stroke-width="6.835" stroke-opacity="1" stroke-linejoin="round" stroke-linecap="round"/>
    <path id="Path-copy-5" d="M332.338 361.504 L397.95 247.49 332.338 133.477 397.95 247.49 332.338 361.504 Z" fill="none" stroke="#929292" stroke-width="6.835" stroke-opacity="1" stroke-linejoin="round" stroke-linecap="round"/>
    <path id="Path-copy-4" d="M358.993 399.093 L446.475 247.076 358.993 95.058 446.475 247.076 358.993 399.093 Z" fill="none" stroke="#929292" stroke-width="6.835" stroke-opacity="1" stroke-linejoin="round" stroke-linecap="round"/>
    <path id="Path-copy-3" d="M385.647 436.683 L495 246.661 385.647 56.639 495 246.661 385.647 436.683 Z" fill="none" stroke="#929292" stroke-width="6.835" stroke-opacity="1" stroke-linejoin="round" stroke-linecap="round"/>
   </g>
   <g id="Left-signal">
    <path id="Path-copy-6-1" d="M194.986 170.445 L151.248 246.448 194.986 322.452 151.248 246.448 194.986 170.445 Z" fill="none" stroke="#929292" stroke-width="6.834" stroke-opacity="1" stroke-linejoin="round" stroke-linecap="round"/>
    <path id="Path-copy-5-1" d="M167.65 132.858 L102.043 246.863 167.65 360.868 102.043 246.863 167.65 132.858 Z" fill="none" stroke="#929292" stroke-width="6.834" stroke-opacity="1" stroke-linejoin="round" stroke-linecap="round"/>
    <path id="Path-copy-4-1" d="M140.997 95.271 L53.522 247.277 140.997 399.284 53.522 247.277 140.997 95.271 Z" fill="none" stroke="#929292" stroke-width="6.834" stroke-opacity="1" stroke-linejoin="round" stroke-linecap="round"/>
    <path id="Path-copy-3-1" d="M114.344 57.683 L5 247.692 114.344 437.7 5 247.692 114.344 57.683 Z" fill="none" stroke="#929292" stroke-width="6.834" stroke-opacity="1" stroke-linejoin="round" stroke-linecap="round"/>
   </g>
  </g>
  <g id="Add-Ons">
   <g id="Error">
    <path id="Background-1" d="M444.836 347.893 L408.636 281.349 C402.82 271.557 388.642 271.544 382.818 281.349 L346.62 347.893 C340.675 357.898 347.873 370.568 359.526 370.568 L431.927 370.568 C443.571 370.568 450.782 357.909 444.836 347.893 Z" fill="#ffffff" fill-opacity="1" stroke="#ffffff" stroke-width="9" stroke-opacity="1" stroke-linejoin="round" stroke-linecap="round"/>
    <path id="Path-1-copy-1" d="M444.836 347.893 L408.636 281.349 C402.82 271.557 388.642 271.544 382.818 281.349 L346.62 347.893 C340.675 357.898 347.873 370.568 359.526 370.568 L431.927 370.568 C443.571 370.568 450.782 357.909 444.836 347.893 Z" fill="#ffffff" fill-opacity="1" stroke="#000000" stroke-width="4.379" stroke-opacity="1" stroke-linejoin="round" stroke-linecap="round"/>
    <path id="Path-1-copy" d="M395.727 358.559 C392.417 358.559 389.723 355.865 389.723 352.555 389.723 349.245 392.417 346.55 395.727 346.55 399.038 346.55 401.732 349.245 401.732 352.555 401.732 355.865 399.038 358.559 395.727 358.559 Z M401.732 334.542 C401.732 337.852 399.038 340.546 395.727 340.546 392.417 340.546 389.723 337.852 389.723 334.542 L389.723 304.519 C389.723 301.209 392.417 298.515 395.727 298.515 399.038 298.515 401.732 301.209 401.732 304.519 Z" fill="#000000" fill-opacity="1" stroke="none"/>
   </g>
  </g>
 </g>
</svg>
