<?xml version="1.0" encoding="UTF-8"?>
<svg width="500px" height="500px" viewBox="0 0 500 500" xmlns="http://www.w3.org/2000/svg" xmlns:xlink="http://www.w3.org/1999/xlink" version="1.1">
 <!-- Generated by Pixelmator Pro 2.1.2 -->
 <g id="ZWJS">
  <g id="Background">
   <path id="Path" d="M230.71 282.523 C229.678 282.523 228.723 281.972 228.207 281.078 L209.358 248.431 C208.842 247.537 208.842 246.435 209.358 245.541 L228.207 212.894 C228.723 212 229.678 211.449 230.71 211.449 L268.407 211.449 C269.439 211.449 270.394 212 270.91 212.894 L289.759 245.541 C290.275 246.435 290.275 247.537 289.759 248.431 L278.731 267.531 C278.215 268.425 277.261 268.976 276.228 268.976 L238.498 268.976 C237.465 268.976 236.511 268.425 235.994 267.531 235.478 266.637 235.478 265.535 235.994 264.641 L254.385 232.787 233.851 232.787 C233.712 232.787 233.6 232.674 233.6 232.535 L233.6 227.258 C233.6 227.119 233.712 227.007 233.851 227.007 L259.391 227.007 C260.423 227.007 261.378 227.557 261.894 228.452 262.41 229.346 262.41 230.447 261.894 231.342 L243.503 263.196 274.56 263.196 283.919 246.986 266.738 217.229 232.379 217.229 215.199 246.986 232.379 276.743 266.738 276.743 269.199 272.482 C269.199 272.482 269.324 272.264 269.543 272.39 269.732 272.5 273.201 274.503 274.113 275.029 274.33 275.155 274.205 275.371 274.205 275.371 L270.91 281.078 C270.394 281.972 269.439 282.523 268.407 282.523 Z" fill="#929292" fill-opacity="1" stroke="none"/>
   <g id="Right-signal">
    <path id="Path-copy-6" d="M305 323.914 L348.741 247.905 305 171.896 348.741 247.905 305 323.914 Z" fill="none" stroke="#929292" stroke-width="6.835" stroke-opacity="1" stroke-linejoin="round" stroke-linecap="round"/>
    <path id="Path-copy-5" d="M332.338 361.504 L397.95 247.49 332.338 133.477 397.95 247.49 332.338 361.504 Z" fill="none" stroke="#929292" stroke-width="6.835" stroke-opacity="1" stroke-linejoin="round" stroke-linecap="round"/>
    <path id="Path-copy-4" d="M358.993 399.093 L446.475 247.076 358.993 95.058 446.475 247.076 358.993 399.093 Z" fill="none" stroke="#929292" stroke-width="6.835" stroke-opacity="1" stroke-linejoin="round" stroke-linecap="round"/>
    <path id="Path-copy-3" d="M385.647 436.683 L495 246.661 385.647 56.639 495 246.661 385.647 436.683 Z" fill="none" stroke="#929292" stroke-width="6.835" stroke-opacity="1" stroke-linejoin="round" stroke-linecap="round"/>
   </g>
   <g id="Left-signal">
    <path id="Path-copy-6-1" d="M194.986 170.445 L151.248 246.448 194.986 322.452 151.248 246.448 194.986 170.445 Z" fill="none" stroke="#929292" stroke-width="6.834" stroke-opacity="1" stroke-linejoin="round" stroke-linecap="round"/>
    <path id="Path-copy-5-1" d="M167.65 132.858 L102.043 246.863 167.65 360.868 102.043 246.863 167.65 132.858 Z" fill="none" stroke="#929292" stroke-width="6.834" stroke-opacity="1" stroke-linejoin="round" stroke-linecap="round"/>
    <path id="Path-copy-4-1" d="M140.997 95.271 L53.522 247.277 140.997 399.284 53.522 247.277 140.997 95.271 Z" fill="none" stroke="#929292" stroke-width="6.834" stroke-opacity="1" stroke-linejoin="round" stroke-linecap="round"/>
    <path id="Path-copy-3-1" d="M114.344 57.683 L5 247.692 114.344 437.7 5 247.692 114.344 57.683 Z" fill="none" stroke="#929292" stroke-width="6.834" stroke-opacity="1" stroke-linejoin="round" stroke-linecap="round"/>
   </g>
  </g>
  <g id="Add-Ons">
   <g id="Trash">
    <path id="Background-1" d="M375.632 371.25 C373.099 371.25 371.097 370.562 369.624 369.185 368.152 367.809 367.36 365.841 367.25 363.281 L364.608 302.958 358.373 302.958 C357.547 302.958 356.825 302.648 356.205 302.029 355.586 301.409 355.276 300.673 355.276 299.82 355.276 298.994 355.586 298.271 356.205 297.652 356.825 297.033 357.634 296.604 358.46 296.604 L376.856 296.604 376.856 296.604 376.856 296.604 376.856 296.604 376.856 296.604 376.856 290.237 C376.705 287.295 377.773 284.964 379.686 283.161 381.6 281.358 384.166 280.331 387.469 280.331 L403.035 280.331 C406.351 280.331 408.905 281.358 410.818 283.161 412.731 284.964 413.648 287.126 413.648 290.237 L413.648 296.604 413.648 296.604 413.648 296.604 413.648 296.604 413.648 296.604 432.044 296.604 C433.01 296.723 433.739 297.026 434.345 297.631 434.951 298.237 435.253 298.966 435.253 299.82 435.253 300.673 434.951 301.409 434.345 302.029 433.739 302.648 433.01 302.958 432.157 302.958 L425.963 302.958 423.321 363.281 C423.211 365.841 422.419 367.809 420.947 369.185 419.474 370.562 417.458 371.25 414.898 371.25 Z M384.285 296.604 L384.285 296.604 384.285 296.604 406.219 296.604 406.219 296.604 406.573 296.604 406.573 296.604 406.219 296.604 406.219 290.944 C406.31 289.773 405.818 289.101 405.158 288.468 404.497 287.835 403.81 287.406 402.681 287.406 L387.823 287.406 C386.725 287.35 385.654 287.835 384.993 288.468 384.332 289.101 384.285 289.898 384.285 290.944 L384.285 296.604 384.285 296.604 Z" fill="#ffffff" fill-opacity="1" stroke="#ffffff" stroke-width="9" stroke-opacity="1" stroke-linejoin="round" stroke-linecap="round"/>
    <path id="Trash-1" d="M375.632 371.25 C373.099 371.25 371.097 370.562 369.624 369.185 368.152 367.809 367.36 365.841 367.25 363.281 L364.608 302.958 358.373 302.958 C357.547 302.958 356.825 302.648 356.205 302.029 355.586 301.409 355.276 300.673 355.276 299.82 355.276 298.994 355.586 298.271 356.205 297.652 356.825 297.033 357.634 296.604 358.46 296.604 L376.856 296.604 376.856 296.604 376.856 296.604 376.856 296.604 376.856 296.604 376.856 290.237 C376.705 287.295 377.773 284.964 379.686 283.161 381.6 281.358 384.166 280.331 387.469 280.331 L403.035 280.331 C406.351 280.331 408.905 281.358 410.818 283.161 412.731 284.964 413.648 287.126 413.648 290.237 L413.648 296.604 413.648 296.604 413.648 296.604 413.648 296.604 413.648 296.604 432.044 296.604 C433.01 296.723 433.739 297.026 434.345 297.631 434.951 298.237 435.253 298.966 435.253 299.82 435.253 300.673 434.951 301.409 434.345 302.029 433.739 302.648 433.01 302.958 432.157 302.958 L425.963 302.958 423.321 363.281 C423.211 365.841 422.419 367.809 420.947 369.185 419.474 370.562 417.458 371.25 414.898 371.25 Z M384.285 296.604 L384.285 296.604 384.285 296.604 406.219 296.604 406.219 296.604 406.573 296.604 406.573 296.604 406.219 296.604 406.219 290.944 C406.31 289.773 405.818 289.101 405.158 288.468 404.497 287.835 403.81 287.406 402.681 287.406 L387.823 287.406 C386.725 287.35 385.654 287.835 384.993 288.468 384.332 289.101 384.285 289.898 384.285 290.944 L384.285 296.604 384.285 296.604 Z" fill="#ffffff" fill-opacity="1" stroke="#000000" stroke-width="3.538" stroke-opacity="1" stroke-linejoin="round" stroke-linecap="round"/>
    <path id="Trash-copy" d="M395.281 360.987 C396.52 360.987 397.524 359.982 397.524 358.743 L397.524 310.623 C397.524 309.384 396.52 308.38 395.281 308.38 394.042 308.38 393.038 309.384 393.038 310.623 L393.038 358.743 C393.038 359.982 394.042 360.987 395.281 360.987 Z M382.345 360.972 C382.364 360.971 382.383 360.971 382.403 360.97 383.641 360.927 384.609 359.888 384.566 358.65 L382.887 310.56 C382.844 309.322 381.805 308.353 380.567 308.396 379.328 308.439 378.36 309.478 378.403 310.716 L380.082 358.807 C380.125 360.026 381.132 360.983 382.345 360.972 Z M408.219 360.972 C409.432 360.983 410.439 360.026 410.482 358.807 L412.161 310.716 C412.204 309.478 411.235 308.439 409.997 308.396 408.759 308.353 407.72 309.322 407.677 310.56 L405.997 358.65 C405.954 359.888 406.923 360.927 408.161 360.97 408.181 360.971 408.2 360.971 408.219 360.972 Z" fill="#000000" fill-opacity="1" stroke="#000000" stroke-width="3.538" stroke-opacity="1" stroke-linejoin="round" stroke-linecap="round"/>
   </g>
  </g>
 </g>
</svg>
