<?xml version="1.0" encoding="UTF-8"?>
<svg width="80px" height="120px" viewBox="0 0 80 120" xmlns="http://www.w3.org/2000/svg" xmlns:xlink="http://www.w3.org/1999/xlink" version="1.1">
 <!-- Generated by Pixelmator Pro 2.0.8 -->
 <g id="New-Group">
  <path id="Path" d="M19.156 35.53 C18.277 35.53 17.464 35.999 17.025 36.76 L0.977 64.555 C0.538 65.316 0.538 66.254 0.977 67.015 L17.025 94.81 C17.464 95.572 18.277 96.041 19.156 96.041 L51.25 96.041 C52.129 96.041 52.942 95.572 53.381 94.81 L69.429 67.015 C69.868 66.254 69.868 65.316 69.429 64.555 L60.04 48.294 C59.601 47.532 58.879 50 58 50 L56 51 64.457 65.785 49.83 91.119 20.576 91.119 5.95 65.785 20.576 40.451 49.83 40.451 C49.83 40.451 51.263 44.945 53 42 53.109 41.815 54 38 54 38 L53.381 36.76 C52.942 35.999 52.129 35.53 51.25 35.53 Z" fill="#ffffff" fill-opacity="1" stroke="none"/>
  <path id="Path-copy" d="M52 36 C52.761 36.512 54.507 38.073 54.507 39.097 L54.507 74.525 C54.507 75.55 54.038 76.497 53.277 77.009 52.516 77.521 51.578 77.521 50.816 77.009 L23.696 58.765 23.696 79.135 C23.696 79.272 23.6 79.384 23.482 79.384 L18.989 79.384 C18.871 79.384 18.775 79.272 18.775 79.135 L18.775 53.799 C18.775 52.775 19.244 51.828 20.005 51.316 20.767 50.804 21.704 50.804 22.466 51.316 L49.586 69.56 49.586 38.752 Z" fill="#ffffff" fill-opacity="1" stroke="none"/>
  <path id="Path-1" d="M65.948 47.362 L70.208 44.903 59.515 26.383 C59.076 25.622 58.264 25.153 57.385 25.153 L36 25.153 36 30.072 55.965 30.072 Z M73.921 42.759 L78.181 40.3 64.862 17.23 C64.422 16.469 63.61 16 62.732 16 L36 16 36 20.919 61.312 20.919 Z" fill="#ffffff" fill-opacity="1" stroke="none"/>
 </g>
</svg>
