<?xml version="1.0" encoding="UTF-8"?>
<svg width="80px" height="120px" viewBox="0 0 80 120" xmlns="http://www.w3.org/2000/svg" xmlns:xlink="http://www.w3.org/1999/xlink" version="1.1">
 <!-- Generated by Pixelmator Pro 2.0.8 -->
 <path id="Path-copy" d="M60.041 79.844 C60.041 80.723 59.572 81.536 58.81 81.975 L31.015 98.023 C30.254 98.462 29.316 98.462 28.555 98.023 L0.76 81.975 C-0.001 81.536 -0.47 80.723 -0.47 79.844 L-0.47 47.75 C-0.47 46.871 -0.001 46.058 0.76 45.619 L28.555 29.571 C29.316 29.132 30.254 29.132 31.015 29.571 L47.277 38.96 C48.038 39.399 48.507 40.212 48.507 41.091 L48.507 73.214 C48.507 74.093 48.038 74.906 47.277 75.345 46.516 75.785 45.578 75.785 44.816 75.345 L17.696 59.688 17.696 77.17 C17.696 77.288 17.6 77.384 17.482 77.384 L12.989 77.384 C12.871 77.384 12.775 77.288 12.775 77.17 L12.775 55.426 C12.775 54.547 13.244 53.734 14.005 53.295 14.767 52.855 15.704 52.855 16.466 53.295 L43.586 68.952 43.586 42.511 29.785 34.543 4.451 49.17 4.451 78.424 29.785 93.05 55.119 78.424 55.119 49.17 51.492 47.076 C51.492 47.076 51.307 46.969 51.414 46.783 51.507 46.622 53.212 43.668 53.66 42.892 53.767 42.707 53.952 42.814 53.952 42.814 L58.81 45.619 C59.572 46.058 60.041 46.871 60.041 47.75 Z" fill="#ffffff" fill-opacity="1" stroke="none"/>
 <path id="Path-copy-1" d="M47.638 32.233 L50.097 27.973 68.617 38.666 C69.378 39.105 69.847 39.917 69.847 40.796 L69.847 62.181 64.928 62.181 64.928 42.216 Z M52.241 24.26 L54.7 20 77.77 33.32 C78.531 33.759 79 34.571 79 35.449 L79 62.181 74.081 62.181 74.081 36.869 Z" fill="#ffffff" fill-opacity="1" stroke="none"/>
</svg>
