<?xml version="1.0" encoding="UTF-8"?>
<svg width="500px" height="500px" viewBox="0 0 500 500" xmlns="http://www.w3.org/2000/svg" xmlns:xlink="http://www.w3.org/1999/xlink" version="1.1">
 <!-- Generated by Pixelmator Pro 2.1.2 -->
 <g id="ZWJS">
  <g id="Background">
   <path id="Path" d="M230.71 282.523 C229.678 282.523 228.723 281.972 228.207 281.078 L209.358 248.431 C208.842 247.537 208.842 246.435 209.358 245.541 L228.207 212.894 C228.723 212 229.678 211.449 230.71 211.449 L268.407 211.449 C269.439 211.449 270.394 212 270.91 212.894 L289.759 245.541 C290.275 246.435 290.275 247.537 289.759 248.431 L278.731 267.531 C278.215 268.425 277.261 268.976 276.228 268.976 L238.498 268.976 C237.465 268.976 236.511 268.425 235.994 267.531 235.478 266.637 235.478 265.535 235.994 264.641 L254.385 232.787 233.851 232.787 C233.712 232.787 233.6 232.674 233.6 232.535 L233.6 227.258 C233.6 227.119 233.712 227.007 233.851 227.007 L259.391 227.007 C260.423 227.007 261.378 227.557 261.894 228.452 262.41 229.346 262.41 230.447 261.894 231.342 L243.503 263.196 274.56 263.196 283.919 246.986 266.738 217.229 232.379 217.229 215.199 246.986 232.379 276.743 266.738 276.743 269.199 272.482 C269.199 272.482 269.324 272.264 269.543 272.39 269.732 272.5 273.201 274.503 274.113 275.029 274.33 275.155 274.205 275.371 274.205 275.371 L270.91 281.078 C270.394 281.972 269.439 282.523 268.407 282.523 Z" fill="#929292" fill-opacity="1" stroke="none"/>
   <g id="Right-signal">
    <path id="Path-copy-6" d="M305 323.914 L348.741 247.905 305 171.896 348.741 247.905 305 323.914 Z" fill="none" stroke="#929292" stroke-width="6.835" stroke-opacity="1" stroke-linejoin="round" stroke-linecap="round"/>
    <path id="Path-copy-5" d="M332.338 361.504 L397.95 247.49 332.338 133.477 397.95 247.49 332.338 361.504 Z" fill="none" stroke="#929292" stroke-width="6.835" stroke-opacity="1" stroke-linejoin="round" stroke-linecap="round"/>
    <path id="Path-copy-4" d="M358.993 399.093 L446.475 247.076 358.993 95.058 446.475 247.076 358.993 399.093 Z" fill="none" stroke="#929292" stroke-width="6.835" stroke-opacity="1" stroke-linejoin="round" stroke-linecap="round"/>
    <path id="Path-copy-3" d="M385.647 436.683 L495 246.661 385.647 56.639 495 246.661 385.647 436.683 Z" fill="none" stroke="#929292" stroke-width="6.835" stroke-opacity="1" stroke-linejoin="round" stroke-linecap="round"/>
   </g>
   <g id="Left-signal">
    <path id="Path-copy-6-1" d="M194.986 170.445 L151.248 246.448 194.986 322.452 151.248 246.448 194.986 170.445 Z" fill="none" stroke="#929292" stroke-width="6.834" stroke-opacity="1" stroke-linejoin="round" stroke-linecap="round"/>
    <path id="Path-copy-5-1" d="M167.65 132.858 L102.043 246.863 167.65 360.868 102.043 246.863 167.65 132.858 Z" fill="none" stroke="#929292" stroke-width="6.834" stroke-opacity="1" stroke-linejoin="round" stroke-linecap="round"/>
    <path id="Path-copy-4-1" d="M140.997 95.271 L53.522 247.277 140.997 399.284 53.522 247.277 140.997 95.271 Z" fill="none" stroke="#929292" stroke-width="6.834" stroke-opacity="1" stroke-linejoin="round" stroke-linecap="round"/>
    <path id="Path-copy-3-1" d="M114.344 57.683 L5 247.692 114.344 437.7 5 247.692 114.344 57.683 Z" fill="none" stroke="#929292" stroke-width="6.834" stroke-opacity="1" stroke-linejoin="round" stroke-linecap="round"/>
   </g>
  </g>
  <g id="Add-Ons">
   <g id="Finger">
    <path id="Shape-copy" d="M387.26 351.694 C360.462 351.615 357.471 351.542 355.814 351.242 354.414 350.988 353.104 350.534 351.544 349.763 349.715 348.859 348.932 348.289 347.365 346.722 345.734 345.091 345.248 344.409 344.221 342.306 343.334 340.491 342.924 339.307 342.701 337.92 342.471 336.487 342.396 331.297 342.396 316.785 342.396 301.936 342.468 297.128 342.71 295.701 342.883 294.684 343.335 293.097 343.716 292.174 344.097 291.25 344.878 289.838 345.451 289.035 346.025 288.233 347.036 287.027 347.697 286.356 348.543 285.499 349.627 284.776 351.348 283.924 353.328 282.943 354.248 282.639 356.17 282.328 358.265 281.989 361.073 281.955 380.036 282.039 398.71 282.121 401.685 282.182 402.73 282.506 403.391 282.711 404.613 283.184 405.445 283.558 406.277 283.931 407.573 284.634 408.325 285.12 409.164 285.662 410.262 286.719 411.17 287.858 411.984 288.878 413.055 290.575 413.551 291.629 414.119 292.836 414.587 294.32 414.817 295.638 415.066 297.067 415.182 299.292 415.182 302.657 415.182 306.674 415.246 307.637 415.527 307.87 415.717 308.028 416.029 308.121 416.22 308.077 416.412 308.034 417.21 307.297 417.994 306.44 419.088 305.242 419.822 304.692 421.159 304.065 422.738 303.325 423.098 303.249 425.037 303.249 427.022 303.249 427.31 303.314 429.074 304.153 430.895 305.019 431.292 305.376 438.601 312.702 442.796 316.907 446.773 321.095 447.439 322.009 448.106 322.924 449.148 324.659 449.755 325.865 450.363 327.071 451.108 328.742 451.411 329.578 451.715 330.414 452.183 332.237 452.452 333.63 452.72 335.023 452.94 337.098 452.94 338.24 452.94 340.317 452.94 340.317 453.91 341.256 454.444 341.772 455.403 342.848 456.042 343.647 456.682 344.445 457.524 345.774 457.915 346.6 458.305 347.425 458.748 348.695 458.899 349.422 459.05 350.149 459.117 351.545 459.048 352.525 458.973 353.582 458.669 354.981 458.3 355.968 457.958 356.882 457.156 358.325 456.517 359.174 455.879 360.023 453.397 362.647 451.002 365.004 447.37 368.58 446.354 369.443 444.88 370.207 443.908 370.71 442.631 371.267 442.043 371.444 441.455 371.621 440.273 371.813 439.417 371.872 438.555 371.93 437.244 371.836 436.476 371.661 435.714 371.486 434.205 370.904 433.122 370.368 431.707 369.667 430.63 368.89 429.292 367.608 427.476 365.867 427.401 365.823 426.228 365.823 425.566 365.823 424.119 365.714 423.012 365.581 421.906 365.448 420.092 365.133 418.982 364.88 417.871 364.628 415.04 364.197 412.689 363.923 410.338 363.648 406.437 363.161 404.021 362.841 401.605 362.52 398.559 362.091 397.253 361.888 395.777 361.657 394.294 361.249 393.334 360.808 392.43 360.393 391.283 359.6 390.565 358.894 389.891 358.231 389.064 357.182 388.727 356.562 388.389 355.942 387.921 354.593 387.687 353.564 Z M432.755 360.948" fill="#ffffff" fill-opacity="1" stroke="#ffffff" stroke-width="3" stroke-opacity="1" stroke-linejoin="round" stroke-linecap="round"/>
    <path id="Shape" d="M387.388 351.459 C360.843 351.382 357.881 351.31 356.239 351.012 354.853 350.76 353.555 350.311 352.01 349.547 350.198 348.652 349.422 348.087 347.87 346.535 346.254 344.919 345.773 344.243 344.756 342.161 343.877 340.363 343.471 339.19 343.25 337.816 343.023 336.397 342.948 331.256 342.948 316.881 342.948 302.173 343.019 297.41 343.259 295.997 343.43 294.989 343.878 293.417 344.256 292.503 344.633 291.588 345.406 290.189 345.975 289.394 346.543 288.599 347.544 287.405 348.199 286.74 349.037 285.891 350.111 285.175 351.815 284.331 353.777 283.36 354.688 283.058 356.592 282.75 358.667 282.414 361.449 282.381 380.232 282.463 398.729 282.545 401.676 282.606 402.711 282.926 403.366 283.13 404.576 283.598 405.401 283.968 406.225 284.338 407.508 285.034 408.253 285.516 409.084 286.053 410.172 287.1 411.072 288.228 411.877 289.238 412.938 290.919 413.429 291.963 413.992 293.159 414.456 294.628 414.684 295.934 414.931 297.35 415.045 299.554 415.045 302.887 415.045 306.866 415.108 307.82 415.387 308.051 415.575 308.207 415.884 308.299 416.074 308.256 416.264 308.213 417.054 307.483 417.83 306.634 418.914 305.447 419.641 304.902 420.966 304.281 422.53 303.548 422.887 303.473 424.807 303.473 426.773 303.473 427.059 303.537 428.806 304.369 430.609 305.227 431.003 305.58 438.243 312.837 442.398 317.002 446.337 321.15 446.997 322.056 447.657 322.962 448.69 324.68 449.291 325.875 449.893 327.07 450.631 328.725 450.932 329.553 451.232 330.381 451.696 332.187 451.962 333.567 452.229 334.947 452.446 337.002 452.446 338.133 452.446 340.191 452.446 340.191 453.407 341.121 453.936 341.632 454.886 342.698 455.519 343.489 456.152 344.28 456.987 345.596 457.374 346.414 457.76 347.231 458.199 348.489 458.349 349.209 458.498 349.929 458.565 351.312 458.496 352.283 458.422 353.33 458.121 354.716 457.755 355.694 457.417 356.599 456.622 358.028 455.99 358.869 455.357 359.71 452.898 362.309 450.526 364.644 446.928 368.186 445.923 369.041 444.462 369.797 443.499 370.296 442.235 370.847 441.652 371.023 441.069 371.198 439.899 371.389 439.051 371.447 438.197 371.505 436.898 371.412 436.138 371.237 435.383 371.065 433.888 370.488 432.816 369.957 431.414 369.263 430.347 368.493 429.022 367.223 427.223 365.498 427.149 365.455 425.986 365.455 425.331 365.455 423.898 365.347 422.802 365.216 421.705 365.084 419.909 364.771 418.809 364.521 417.709 364.271 414.904 363.845 412.575 363.573 410.247 363.301 406.383 362.819 403.99 362.501 401.596 362.184 398.579 361.759 397.286 361.557 395.824 361.329 394.355 360.924 393.405 360.488 392.509 360.076 391.373 359.291 390.662 358.592 389.994 357.935 389.174 356.895 388.84 356.281 388.506 355.668 388.043 354.331 387.81 353.312 L387.388 351.459 Z M438.82 364.202 C439.729 364.158 440.45 363.948 441.173 363.518 441.745 363.178 444.014 361.099 446.213 358.898 448.412 356.697 450.448 354.493 450.737 354.001 451.14 353.315 451.263 352.733 451.266 351.509 451.269 350.385 451.136 349.653 450.817 349.039 450.568 348.559 449.498 347.319 448.438 346.284 447.378 345.249 446.206 343.932 445.833 343.357 445.168 342.331 445.154 342.247 445.15 339.005 445.148 337.076 445.008 335.049 444.815 334.137 444.633 333.277 444.194 331.848 443.841 330.961 443.487 330.074 442.639 328.448 441.955 327.349 440.925 325.691 439.464 324.103 433.406 318.057 426.099 310.765 426.099 310.765 424.983 310.689 424.105 310.63 423.754 310.719 423.34 311.108 423.05 311.379 422.743 311.882 422.657 312.225 422.571 312.567 422.623 313.171 422.772 313.566 422.921 313.961 423.969 315.209 425.101 316.338 426.233 317.468 427.35 318.706 427.583 319.09 427.816 319.475 428.066 320.152 428.138 320.596 428.226 321.136 428.11 321.761 427.789 322.488 427.493 323.158 427.011 323.754 426.529 324.048 426.045 324.343 425.337 324.525 424.666 324.525 423.923 324.526 423.346 324.36 422.827 323.997 422.411 323.706 420.391 321.774 418.339 319.704 416.286 317.634 414.266 315.702 413.85 315.411 413.434 315.12 412.784 314.882 412.405 314.882 411.952 314.882 411.473 315.125 411.005 315.593 410.387 316.21 410.305 316.441 410.378 317.356 410.459 318.373 410.602 318.549 414.694 322.628 417.022 324.948 419.162 327.183 419.45 327.594 419.738 328.006 420.04 328.697 420.122 329.131 420.228 329.698 420.123 330.224 419.75 330.995 419.386 331.746 418.958 332.208 418.323 332.531 417.824 332.786 417.015 332.992 416.525 332.99 416.024 332.988 415.254 332.756 414.767 332.461 414.29 332.172 411.731 329.766 409.081 327.113 406.43 324.461 403.92 322.053 403.503 321.762 403.086 321.471 402.45 321.233 402.091 321.233 401.728 321.233 401.109 321.51 400.694 321.859 400.019 322.427 399.958 322.589 400.03 323.621 400.109 324.758 400.109 324.758 405.048 329.688 407.765 332.4 410.294 334.99 410.669 335.444 411.154 336.032 411.376 336.592 411.443 337.395 411.515 338.262 411.411 338.739 410.994 339.463 410.696 339.98 410.082 340.595 409.632 340.828 409.073 341.118 408.485 341.219 407.786 341.148 407.149 341.083 406.415 340.788 405.853 340.371 405.355 340.001 400.744 335.464 395.607 330.289 390.47 325.114 385.068 319.742 383.603 318.351 381.117 315.991 380.876 315.823 379.987 315.823 379.28 315.823 378.88 315.977 378.435 316.422 377.923 316.934 377.847 317.191 377.916 318.194 377.997 319.366 377.997 319.366 395.286 336.608 408.57 349.856 412.982 354.116 414.331 354.999 415.391 355.694 416.987 356.451 418.361 356.911 419.613 357.33 421.575 357.792 422.722 357.937 423.883 358.083 425.659 358.131 426.729 358.045 428.357 357.913 428.805 357.96 429.669 358.352 430.241 358.612 431.461 359.609 432.452 360.626 433.423 361.621 434.64 362.729 435.157 363.088 435.675 363.446 436.416 363.858 436.804 364.003 437.192 364.148 438.099 364.238 438.82 364.202 Z M402.506 355.079 C402.789 355.093 403.084 355.004 403.161 354.88 403.237 354.756 402.935 354.253 402.488 353.762 402.042 353.272 400.916 352.192 399.985 351.363 399.055 350.534 398.043 349.808 397.735 349.749 397.428 349.69 396.913 349.708 396.591 349.789 396.269 349.87 395.79 350.167 395.528 350.448 395.2 350.8 395.051 351.281 395.051 351.985 395.051 352.752 395.193 353.151 395.613 353.572 395.922 353.881 396.531 354.196 396.965 354.272 397.4 354.349 398.709 354.555 399.873 354.732 401.038 354.908 402.222 355.064 402.506 355.079 Z M374.645 344.034 C391.155 344.049 391.993 344.029 391.993 343.629 391.993 343.398 391.49 342.721 390.876 342.124 390.261 341.528 389.24 340.598 388.606 340.057 387.757 339.333 387.323 339.112 386.959 339.219 386.688 339.298 385.724 339.56 384.819 339.8 383.913 340.04 382.252 340.349 381.128 340.486 379.71 340.66 378.422 340.662 376.923 340.495 375.734 340.362 373.872 339.996 372.784 339.681 371.697 339.366 369.939 338.671 368.876 338.137 367.814 337.603 366.199 336.662 365.286 336.046 364.374 335.431 362.811 334.058 361.812 332.997 360.813 331.935 359.563 330.337 359.033 329.445 358.502 328.552 357.658 326.87 357.157 325.707 356.648 324.528 356.021 322.48 355.739 321.077 355.32 318.997 355.257 318.089 355.374 315.839 355.452 314.342 355.715 312.376 355.959 311.471 356.203 310.565 356.66 309.189 356.975 308.413 357.29 307.637 358.061 306.049 358.689 304.884 359.625 303.146 360.305 302.296 362.486 300.132 365.036 297.602 365.269 297.435 368.277 295.962 370.169 295.036 372.25 294.216 373.528 293.893 375.23 293.463 376.291 293.358 378.938 293.358 381.536 293.358 382.664 293.467 384.281 293.871 385.409 294.152 387.338 294.824 388.569 295.364 389.8 295.904 391.312 296.673 391.929 297.072 392.547 297.472 394.217 298.97 395.641 300.401 397.559 302.328 398.502 303.491 399.278 304.885 399.854 305.92 400.61 307.465 400.957 308.32 401.305 309.174 401.775 310.656 402.002 311.613 402.229 312.57 402.522 313.49 402.652 313.657 402.782 313.824 403.025 313.93 403.193 313.892 403.36 313.854 403.932 313.188 404.464 312.412 404.995 311.636 405.962 310.522 406.612 309.938 407.794 308.875 407.794 308.875 407.715 302.522 407.636 296.17 407.636 296.17 406.863 294.6 406.384 293.628 405.678 292.668 405.009 292.08 404.415 291.557 403.334 290.837 402.607 290.479 401.285 289.83 401.285 289.83 379.051 289.83 356.817 289.83 356.817 289.83 355.205 290.624 354.318 291.06 353.181 291.83 352.676 292.334 352.172 292.838 351.471 293.84 351.118 294.56 350.476 295.868 350.476 295.868 350.476 316.877 350.476 337.885 350.476 337.885 351.024 339.027 351.325 339.655 352.014 340.63 352.553 341.193 353.092 341.757 353.923 342.48 354.398 342.801 354.874 343.121 355.72 343.526 356.28 343.701 357.093 343.955 360.778 344.021 374.645 344.034 Z M378.85 333.435 C379.319 333.451 380.039 333.397 380.45 333.315 380.977 333.21 381.176 333.05 381.126 332.773 381.087 332.557 379.118 330.433 376.751 328.052 373.004 324.284 372.335 323.496 371.576 321.961 370.755 320.298 370.705 320.068 370.705 317.946 370.705 315.884 370.769 315.565 371.466 314.15 371.942 313.183 372.711 312.146 373.522 311.38 374.235 310.706 375.5 309.835 376.334 309.444 377.169 309.054 378.439 308.674 379.157 308.6 379.888 308.525 381.092 308.599 381.892 308.769 382.679 308.936 383.95 309.453 384.717 309.919 385.534 310.415 387.622 312.275 389.758 314.411 391.763 316.417 393.591 318.088 393.821 318.125 394.051 318.163 394.539 317.88 394.906 317.498 395.573 316.802 395.573 316.802 395.315 314.886 395.173 313.833 394.805 312.245 394.496 311.358 394.188 310.471 393.426 308.94 392.802 307.957 392.179 306.972 391.01 305.534 390.204 304.761 389.161 303.759 388.108 303.052 386.544 302.301 385.336 301.722 383.717 301.087 382.946 300.891 382.107 300.676 380.5 300.533 378.943 300.533 377.036 300.533 375.871 300.663 374.582 301.019 373.614 301.287 371.983 301.949 370.957 302.49 369.931 303.03 368.483 304.034 367.739 304.719 366.994 305.404 365.848 306.802 365.191 307.826 364.534 308.85 363.707 310.565 363.352 311.638 362.773 313.39 362.707 313.923 362.707 316.881 362.707 319.701 362.787 320.416 363.259 321.858 363.563 322.784 364.33 324.425 364.964 325.504 365.599 326.583 366.642 327.957 367.282 328.558 367.923 329.158 369.201 330.151 370.123 330.763 371.044 331.376 372.543 332.136 373.453 332.453 374.363 332.769 375.758 333.113 376.553 333.217 377.347 333.32 378.381 333.418 378.85 333.435 Z" fill="#000000" fill-opacity="1" stroke="none"/>
   </g>
  </g>
 </g>
</svg>
